<?xml version="1.0" encoding="iso-8859-1"?>
<!-- Generator: Adobe Illustrator 19.0.0, SVG Export Plug-In . SVG Version: 6.00 Build 0)  -->
<svg version="1.1" id="Capa_1" xmlns="http://www.w3.org/2000/svg" xmlns:xlink="http://www.w3.org/1999/xlink" x="0px" y="0px"
	 viewBox="0 0 512.011 512.011" style="enable-background:new 0 0 512.011 512.011;" xml:space="preserve">
<path style="fill:#4CDBC4;" d="M448.933,363.189l-116.661-30.443l-151.317,0.043l-117.877,30.4
	c-37.568,12.021-63.072,46.944-63.072,86.4V512h512v-62.411C512.005,410.133,486.501,375.211,448.933,363.189"/>
<path style="fill:#F8B64C;" d="M331.621,332.747L331.621,332.747l0.011-55.349H180.315v55.392
	C220.581,378.101,291.376,378.08,331.621,332.747"/>
<path id="SVGCleanerId_0" style="fill:#FFD15C;" d="M366.459,129.899v36.267c0,0.651-0.96,35.349-9.504,59.829
	c-9.973,28.619-24.309,55.584-44.896,78.08l-10.56,11.52c-9.6,10.56-23.253,16.544-37.557,16.544h-16
	c-14.187,0-27.84-6.08-37.44-16.544l-10.443-11.52c-14.624-15.893-26.56-34.016-35.413-53.333
	c-7.691-16.533-19.104-48.896-19.104-87.04v-33.163c0-21.195,7.157-39.349,9.077-43.627c16.853-39.253,55.893-66.773,101.451-66.773
	c45.333,0,84.363,27.403,101.216,66.549C359.216,91.072,366.459,107.669,366.459,129.899"/>
<g>
	<path style="fill:#F8B64C;" d="M180.005,167.712c1.664,19.147-7.627,35.605-20.747,36.747
		c-13.141,1.141-25.141-13.44-26.827-32.587s7.616-35.605,20.757-36.747C166.32,133.984,178.331,148.565,180.005,167.712"/>
	<path style="fill:#F8B64C;" d="M379.589,171.872c-1.685,19.147-13.685,33.739-26.827,32.587
		c-13.131-1.141-22.432-17.6-20.757-36.747c1.675-19.147,13.685-33.728,26.837-32.587
		C371.963,136.267,381.253,152.725,379.589,171.872"/>
</g>
<g>
	<path id="SVGCleanerId_0_1_" style="fill:#FFD15C;" d="M366.459,129.899v36.267c0,0.651-0.96,35.349-9.504,59.829
		c-9.973,28.619-24.309,55.584-44.896,78.08l-10.56,11.52c-9.6,10.56-23.253,16.544-37.557,16.544h-16
		c-14.187,0-27.84-6.08-37.44-16.544l-10.443-11.52c-14.624-15.893-26.56-34.016-35.413-53.333
		c-7.691-16.533-19.104-48.896-19.104-87.04v-33.163c0-21.195,7.157-39.349,9.077-43.627
		c16.853-39.253,55.893-66.773,101.451-66.773c45.333,0,84.363,27.403,101.216,66.549
		C359.216,91.072,366.459,107.669,366.459,129.899"/>
</g>
<g style="opacity:0.1;">
	<g>
		<path style="fill:#40596B;" d="M312.069,304.171l-10.56,11.52c-9.6,10.549-23.253,16.523-37.557,16.523h-16
			c-0.277,0-0.576-0.085-0.864-0.085l39.755,29.92c16.672-5.312,32.224-15.061,44.789-29.205v-0.011V281.28
			c-0.768,0.416-1.728,0.875-2.581,1.312C323.824,290.08,318.277,297.365,312.069,304.171"/>
	</g>
</g>
<g>
	<polygon style="fill:#40596B;" points="126.651,416.309 126.651,346.805 92.656,355.563 92.656,416.309 	"/>
	<polygon style="fill:#40596B;" points="419.355,416.309 419.355,355.477 385.36,346.603 385.36,416.309 	"/>
	<rect x="92.656" y="416.32" style="fill:#40596B;" width="326.709" height="95.691"/>
</g>
<g>
	<rect x="103.109" y="433.376" style="fill:#4CDBC4;" width="13.099" height="30.784"/>
	<rect x="395.845" y="433.376" style="fill:#4CDBC4;" width="13.088" height="30.784"/>
</g>
<path style="fill:#40596B;" d="M258.192,0.096C257.456,0,256.752,0,256.005,0C194.96,0,145.552,55.083,145.552,133.643
	c0,1.877,0.064,3.648,0.107,5.461c1.419-1.333,2.933-2.688,4.523-4.043l-0.288-0.085c0,0,60.128-33.269,108.043-28.875
	c47.915-4.395,107.008,31.691,108.448,33.045c0.043-1.813,0.096-3.627,0.096-5.504C366.459,56.021,318.149,1.547,258.192,0.096"/>
<path style="fill:#F2F2F2;" d="M289.36,46.645c0,8.981-14.933,16.245-33.355,16.245s-33.355-7.275-33.355-16.245
	c0-8.96,14.933-16.235,33.355-16.235S289.36,37.685,289.36,46.645"/>
<g style="opacity:0.1;">
	<g>
		<path style="fill:#40596B;" d="M366.363,138.987l-21.141,5.749c-9.749,2.656-20.459,0.576-27.808-6.368
			c-27.744-26.144-61.408-23.744-61.408-23.744s-0.149-0.021-0.341-0.021c-3.307-0.149-84.363,4.352-110.005,24.501l207.179,97.397
			c1.376-3.499,2.901-6.933,4.139-10.485c8.544-24.48,9.504-59.2,9.504-59.84L366.363,138.987z"/>
	</g>
</g>
<path style="fill:#F2F2F2;" d="M256.005,90.517c-62.059,1.109-110.368,48.459-110.368,48.459l21.664,5.909
	c9.632,2.624,20.075,0.277,27.339-6.571c27.733-26.08,61.355-23.691,61.355-23.691s33.611-2.4,61.333,23.691
	c7.285,6.859,17.728,9.195,27.349,6.571l21.675-5.909C366.373,138.976,320.773,90.251,256.005,90.517"/>
<g>
</g>
<g>
</g>
<g>
</g>
<g>
</g>
<g>
</g>
<g>
</g>
<g>
</g>
<g>
</g>
<g>
</g>
<g>
</g>
<g>
</g>
<g>
</g>
<g>
</g>
<g>
</g>
<g>
</g>
</svg>
