<svg width="50" height="50" xmlns="http://www.w3.org/2000/svg" style="vector-effect: non-scaling-stroke;" stroke="null">

 <g stroke="null">
  <title stroke="null">background</title>
  <rect stroke="null" fill="none" id="canvas_background" height="52" width="52" y="-1" x="-1"/>
 </g>
 <g stroke="null">
  <title stroke="null">Layer 1</title>
  <path stroke="null" id="svg_2" fill="#2ac119" d="m24.669854,1.223296c-9.324524,0 -16.88346,7.293788 -16.88346,16.291231c0,2.89373 0.805341,5.600111 2.176278,7.954193c0.227716,0.39099 0.466406,0.77587 0.725567,1.146495l13.981615,23.481773l13.981615,-23.481773c0.215264,-0.307497 0.400982,-0.633322 0.593032,-0.955073l0.132957,-0.191422c1.369671,-2.354083 2.175856,-5.060464 2.175856,-7.954193c0,-8.997443 -7.559569,-16.291231 -16.88346,-16.291231zm0,8.145615c4.661945,0 8.44173,3.646996 8.44173,8.145615c0,4.498416 -3.779785,8.145615 -8.44173,8.145615c-4.662156,0 -8.44173,-3.647199 -8.44173,-8.145615c0,-4.49862 3.779574,-8.145615 8.44173,-8.145615z"/>
  <path stroke="null" transform="rotate(-0.807998776435852 24.694404602050696,17.578443527221875) " id="svg_3" fill="#208c08" d="m24.694404,6.951761c-5.582189,0 -10.107535,4.757779 -10.107535,10.626683c0,5.868054 4.525346,10.626683 10.107535,10.626683c5.581381,0 10.107535,-4.758629 10.107535,-10.626683c0,-5.868905 -4.526154,-10.626683 -10.107535,-10.626683zm0,4.250673c3.349637,0 6.064521,2.85454 6.064521,6.37601s-2.714884,6.37601 -6.064521,6.37601s-6.064521,-2.85454 -6.064521,-6.37601s2.714884,-6.37601 6.064521,-6.37601z"/>
 </g>
</svg>