<?xml version="1.0" encoding="UTF-8" standalone="no"?><!DOCTYPE svg PUBLIC "-//W3C//DTD SVG 1.1//EN" "http://www.w3.org/Graphics/SVG/1.1/DTD/svg11.dtd"><svg width="45px" height="45px" viewBox="0 0 5 5" version="1.1" xmlns="http://www.w3.org/2000/svg" xmlns:xlink="http://www.w3.org/1999/xlink" xml:space="preserve" xmlns:serif="http://www.serif.com/" style="fill-rule:evenodd;clip-rule:evenodd;stroke-linejoin:round;stroke-miterlimit:1.41421;"><path id="Pin-Icon" serif:id="Pin Icon" d="M4,2.283c-0.385,1.293 -1.6,2.517 -1.6,2.517c0,0 -1.211,-1.221 -1.597,-2.511c-0.066,-0.181 -0.103,-0.386 -0.103,-0.59c0,-0.944 0.761,-1.699 1.7,-1.699c0.939,0 1.7,0.755 1.7,1.699c0,0.202 -0.037,0.405 -0.1,0.584Zm-1.6,-1.283c-0.387,0 -0.7,0.313 -0.7,0.7c0,0.387 0.313,0.7 0.7,0.7c0.387,0 0.7,-0.313 0.7,-0.7c0,-0.387 -0.313,-0.7 -0.7,-0.7Z" style="fill:#F44336;"/><circle cx="2.4" cy="1.68" r="1.2" style="fill:#fff;"/><clipPath id="_clip1"><circle cx="2.4" cy="1.68" r="1.2"/></clipPath><g clip-path="url(#_clip1)"><g><g><rect x="1.62" y="1.065" width="1.559" height="1.499" style="fill:#e4e7e7;fill-rule:nonzero;"/><rect x="1.62" y="1.468" width="1.559" height="0.076" style="fill:#cdcfcf;fill-rule:nonzero;"/><path d="M3.358,1.32l-0.152,-0.15l-1.615,0l-0.151,0.15l0,0.1c0,0.027 0.022,0.05 0.051,0.05l1.818,0c0.029,0 0.051,-0.023 0.051,-0.05l-0.002,-0.1Z" style="fill:#e4e7e7;fill-rule:nonzero;"/><path d="M3.354,1.315l-0.148,-0.145l-1.615,0l-0.147,0.145l1.91,0Z" style="fill:#cdcfcf;fill-rule:nonzero;"/><path d="M1.722,0.96l1.353,0l0.104,0.105l-1.559,0l0.102,-0.105Z" style="fill:#ccd0d2;fill-rule:nonzero;"/><path d="M1.725,2.474l0.345,0l0,-1.004l-0.345,0l0,1.004Zm0.449,0.09l0.45,0l0,-1.094l-0.45,0l0,1.094Zm0.555,-1.094l0,1.004l0.345,0l0,-1.004l-0.345,0Zm-1.004,1.004l0.345,0l0,-1.004l-0.345,0l0,1.004Zm0.449,0.09l0.45,0l0,-1.094l-0.45,0l0,1.094Zm0.555,-1.094l0,1.004l0.345,0l0,-1.004l-0.345,0Z" style="fill:#2ea9d3;fill-rule:nonzero;"/><path d="M2.314,1.709l0.172,0c0.027,0 0.05,0.023 0.05,0.051l0,0.077c0,0.028 -0.023,0.051 -0.05,0.051l-0.172,0c-0.027,0 -0.05,-0.023 -0.05,-0.051l0,-0.077c0,-0.028 0.023,-0.051 0.05,-0.051Z" style="fill:#3db39e;fill-rule:nonzero;"/><path d="M2.485,1.754c0.001,0 0.004,0.003 0.004,0.006l0,0.077c0,0.004 -0.003,0.006 -0.004,0.006l-0.171,0c-0.002,0 -0.005,-0.003 -0.005,-0.006l0,-0.077c0,-0.004 0.003,-0.006 0.005,-0.006l0.171,0Zm0,-0.045l-0.171,0c-0.027,0 -0.05,0.023 -0.05,0.051l0,0.077c0,0.028 0.023,0.051 0.05,0.051l0.172,0c0.027,0 0.05,-0.023 0.05,-0.051l0,-0.077c-0.002,-0.028 -0.024,-0.051 -0.051,-0.051Z" style="fill:#e4e7e7;fill-rule:nonzero;"/><path d="M2.07,2.099l-0.135,0l0,-0.165l-0.21,0l0,0.54l0.345,0l0,-0.375Zm0.104,0l0.18,0l0,0.465l-0.18,0l0,-0.465Zm0.555,-0.15l0.345,0l0,0.525l-0.345,0l0,-0.525Zm-0.225,0.255l0.12,0l0,0.36l-0.12,0l0,-0.36Z" style="fill:#2998bd;fill-rule:nonzero;"/><path d="M2.946,2.387c0.024,0 0.047,0.007 0.066,0.021c0.014,-0.083 0.086,-0.144 0.173,-0.144c0.096,0 0.175,0.076 0.175,0.172c0,0.096 -0.078,0.173 -0.175,0.173l-0.237,0c-0.062,0 -0.113,-0.05 -0.113,-0.111c-0.001,-0.062 0.05,-0.111 0.111,-0.111Zm-1.094,0c-0.024,0 -0.046,0.007 -0.066,0.021c-0.013,-0.083 -0.085,-0.144 -0.172,-0.144c-0.096,0 -0.174,0.078 -0.174,0.172c0,0.096 0.078,0.173 0.175,0.173l0.237,0c0.062,0 0.113,-0.05 0.113,-0.111c0,-0.062 -0.051,-0.111 -0.113,-0.111Z" style="fill:#3db39e;fill-rule:nonzero;"/><path d="M1.852,2.564l-0.237,0c-0.088,0 -0.162,-0.066 -0.172,-0.15c-0.003,0.007 -0.003,0.015 -0.003,0.022c0,0.096 0.078,0.173 0.175,0.173l0.237,0c0.062,0 0.113,-0.05 0.113,-0.111c0,-0.008 -0.002,-0.015 -0.003,-0.023c-0.011,0.051 -0.056,0.089 -0.11,0.089Zm1.331,0l-0.237,0c-0.054,0 -0.099,-0.038 -0.109,-0.089c-0.002,0.008 -0.003,0.015 -0.003,0.023c0,0.061 0.051,0.111 0.112,0.111l0.237,0c0.096,0 0.175,-0.077 0.175,-0.173c0,-0.007 0,-0.015 -0.001,-0.022c-0.012,0.084 -0.084,0.15 -0.174,0.15Z" style="fill:#37a18e;fill-rule:nonzero;"/><path d="M2.729,1.47l0.345,0l0,0.073l-0.345,0l0,-0.073Zm-1.004,0l0.345,0l0,0.073l-0.345,0l0,-0.073Zm0.449,0l0.45,0l0,0.073l-0.45,0l0,-0.073Z" style="fill:#2998bd;fill-rule:nonzero;"/><path d="M3.206,1.17l-0.087,0l0.135,0.15l0,0.15l0.054,0c0.028,0 0.05,-0.023 0.05,-0.05l0,-0.1l-0.001,-0.002l-0.151,-0.148Zm-1.258,0.145l0.06,-0.145l-0.087,0l-0.076,0.145l0,0.155l0.103,0l0,-0.155Zm-0.313,0.155l0.103,0l0,-0.15l0.107,-0.15l-0.101,0l-0.109,0.15l0,0.15Zm0.719,-0.152l0.015,-0.148l-0.105,0l-0.013,0.147l0,0.153l0.103,0l0,-0.152Zm-0.196,0.15l0,-0.153l0.031,-0.145l-0.097,0l-0.037,0.145l0,0.153l0.103,0Zm0.796,0.002l0,-0.155l-0.077,-0.144l-0.087,0l0.059,0.144l0,0.155l0.105,0Zm0.21,0l0,-0.15l-0.11,-0.15l-0.1,0l0.106,0.15l0,0.15l0.104,0Zm-1.673,0l0.054,0l0,-0.15l0.135,-0.15l-0.089,0l-0.151,0.15l0,0.099c0,0.028 0.022,0.051 0.051,0.051Zm1.057,0l0,-0.152l-0.014,-0.148l-0.105,0l0.015,0.148l0,0.152l0.104,0Zm0.093,-0.155l0,0.153l0.103,0l0,-0.153l-0.037,-0.145l-0.098,0l0.032,0.145Z" style="fill:#e2574c;fill-rule:nonzero;"/><path d="M2.877,1.171l-0.087,0l0.059,0.144l0.103,0l-0.075,-0.144Zm-0.343,-0.001l-0.105,0l0.015,0.145l0.104,0l-0.014,-0.145Zm0.672,0l-0.087,0l0.13,0.145l0.105,0l-0.148,-0.145Zm-0.152,0l-0.1,0l0.102,0.145l0.103,0l-0.105,-0.145Zm-0.349,0l-0.096,0l0.032,0.145l0.103,0l-0.039,-0.145Zm-0.65,0.145l0.103,0l0.031,-0.145l-0.097,0l-0.037,0.145Zm-0.21,-0.145l-0.101,0l-0.106,0.145l0.103,0l0.104,-0.145Zm0.406,0.145l0.103,0l0.015,-0.145l-0.105,0l-0.013,0.145Zm-0.807,0l0.105,0l0.131,-0.145l-0.089,0l-0.147,0.145Zm0.401,0l0.103,0l0.06,-0.145l-0.087,0l-0.076,0.145Z" style="fill:#cb4e44;fill-rule:nonzero;"/></g></g></g></svg>