<?xml version="1.0" encoding="UTF-8" standalone="no"?><!DOCTYPE svg PUBLIC "-//W3C//DTD SVG 1.1//EN" "http://www.w3.org/Graphics/SVG/1.1/DTD/svg11.dtd"><svg width="45px" height="45px" viewBox="0 0 5 5" version="1.1" xmlns="http://www.w3.org/2000/svg" xmlns:xlink="http://www.w3.org/1999/xlink" xml:space="preserve" xmlns:serif="http://www.serif.com/" style="fill-rule:evenodd;clip-rule:evenodd;stroke-linejoin:round;stroke-miterlimit:1.41421;"><path id="Pin-Icon" serif:id="Pin Icon" d="M4,2.283c-0.385,1.293 -1.6,2.517 -1.6,2.517c0,0 -1.211,-1.221 -1.597,-2.511c-0.066,-0.181 -0.103,-0.386 -0.103,-0.59c0,-0.944 0.761,-1.699 1.7,-1.699c0.939,0 1.7,0.755 1.7,1.699c0,0.202 -0.037,0.405 -0.1,0.584Zm-1.6,-1.283c-0.387,0 -0.7,0.313 -0.7,0.7c0,0.387 0.313,0.7 0.7,0.7c0.387,0 0.7,-0.313 0.7,-0.7c0,-0.387 -0.313,-0.7 -0.7,-0.7Z" style="fill:#FB8C00;"/><circle cx="2.4" cy="1.68" r="1.2" style="fill:#fff;"/><clipPath id="_clip1"><circle cx="2.4" cy="1.68" r="1.2"/></clipPath><g clip-path="url(#_clip1)"><g><rect x="1.904" y="0.925" width="0.089" height="0.268" style="fill:#171717;fill-rule:nonzero;"/><rect x="2.806" y="0.925" width="0.089" height="0.268" style="fill:#171717;fill-rule:nonzero;"/><path d="M1.681,1.436l0,1.204l0.911,0l0.167,-0.089l0.168,0.089l0.192,0l0,-1.204l-1.438,0Z" style="fill:#aea7a5;fill-rule:nonzero;"/><rect x="2.592" y="1.912" width="0.335" height="0.728" style="fill:#171717;fill-rule:nonzero;"/><rect x="1.873" y="1.912" width="0.527" height="0.536" style="fill:#fff;fill-rule:nonzero;"/><rect x="1.86" y="0.72" width="1.081" height="0.25" style="fill:#fbb04f;fill-rule:nonzero;"/><path d="M1.681,1.149l-0.134,0.287l0.284,0.089l0.285,-0.089l0.11,-0.144l-0.066,-0.143l-0.479,0Z" style="fill:#ef3840;fill-rule:nonzero;"/><path d="M3.119,1.149l0.134,0.287l-0.284,0.089l-0.285,-0.089l-0.11,-0.144l0.066,-0.143l0.479,0Z" style="fill:#ef3840;fill-rule:nonzero;"/><path d="M1.547,1.436c0,0.157 0.127,0.284 0.284,0.284c0.157,0 0.285,-0.127 0.285,-0.284l-0.569,0Z" style="fill:#c22026;fill-rule:nonzero;"/><path d="M2.64,1.149l-0.48,0l-0.044,0.287l0.284,0.089l0.284,-0.089l-0.044,-0.287Z" style="fill:#fde1d6;fill-rule:nonzero;"/><path d="M2.116,1.436c0,0.157 0.127,0.284 0.284,0.284c0.157,0 0.284,-0.127 0.284,-0.284l-0.568,0Z" style="fill:#fbb04f;fill-rule:nonzero;"/><path d="M2.684,1.436c0,0.157 0.128,0.284 0.285,0.284c0.157,0 0.284,-0.127 0.284,-0.284l-0.569,0Z" style="fill:#c22026;fill-rule:nonzero;"/></g></g></svg>