<?xml version="1.0" encoding="UTF-8" standalone="no"?><!DOCTYPE svg PUBLIC "-//W3C//DTD SVG 1.1//EN" "http://www.w3.org/Graphics/SVG/1.1/DTD/svg11.dtd"><svg width="45px" height="45px" viewBox="0 0 5 5" version="1.1" xmlns="http://www.w3.org/2000/svg" xmlns:xlink="http://www.w3.org/1999/xlink" xml:space="preserve" xmlns:serif="http://www.serif.com/" style="fill-rule:evenodd;clip-rule:evenodd;stroke-linejoin:round;stroke-miterlimit:1.41421;"><path id="Pin-Icon" serif:id="Pin Icon" d="M4,2.283c-0.385,1.293 -1.6,2.517 -1.6,2.517c0,0 -1.211,-1.221 -1.597,-2.511c-0.066,-0.181 -0.103,-0.386 -0.103,-0.59c0,-0.944 0.761,-1.699 1.7,-1.699c0.939,0 1.7,0.755 1.7,1.699c0,0.202 -0.037,0.405 -0.1,0.584Zm-1.6,-1.283c-0.387,0 -0.7,0.313 -0.7,0.7c0,0.387 0.313,0.7 0.7,0.7c0.387,0 0.7,-0.313 0.7,-0.7c0,-0.387 -0.313,-0.7 -0.7,-0.7Z" style="fill:#00796b;"/><circle cx="2.4" cy="1.68" r="1.2" style="fill:#fff;"/><clipPath id="_clip1"><circle cx="2.4" cy="1.68" r="1.2"/></clipPath><g clip-path="url(#_clip1)"><g><path d="M2.756,1.766l0,0.21c-0.07,0.1 -0.174,0.159 -0.283,0.178c-0.024,0.003 -0.049,0.009 -0.073,0.009c-0.133,0 -0.268,-0.066 -0.355,-0.187l0.002,-0.21l0.709,0Z" style="fill:#faa84a;fill-rule:nonzero;"/><g><path d="M2.473,2.154c0.109,-0.019 0.213,-0.078 0.283,-0.178l0,-0.204l0,0.204c-0.07,0.1 -0.174,0.159 -0.283,0.178Z" style="fill:#e1e4e6;fill-rule:nonzero;"/><path d="M2.473,2.154l-0.202,-0.151c0.029,0.013 0.061,0.02 0.093,0.02l0.075,0c0.067,0 0.131,-0.028 0.176,-0.078l0.05,-0.054c0.034,-0.037 0.064,-0.078 0.091,-0.119l0,0.204c-0.07,0.1 -0.174,0.159 -0.283,0.178Z" style="fill:#eea249;fill-rule:nonzero;"/></g><path d="M2.036,1.22c0.007,0.083 -0.033,0.155 -0.091,0.16c-0.057,0.005 -0.11,-0.058 -0.117,-0.142c-0.008,-0.084 0.033,-0.156 0.091,-0.161c0.057,-0.005 0.11,0.059 0.117,0.143Z" style="fill:#faa84a;fill-rule:nonzero;"/><path d="M2.973,1.238c-0.007,0.084 -0.06,0.147 -0.117,0.142c-0.058,-0.005 -0.098,-0.077 -0.091,-0.16c0.007,-0.084 0.06,-0.148 0.117,-0.143c0.058,0.005 0.098,0.077 0.091,0.161Z" style="fill:#faa84a;fill-rule:nonzero;"/><path d="M2.903,1.397c-0.015,0.085 -0.04,0.167 -0.076,0.245c-0.041,0.09 -0.097,0.175 -0.166,0.25l-0.049,0.054c-0.045,0.049 -0.109,0.077 -0.175,0.077l-0.073,0c-0.066,0 -0.131,-0.028 -0.176,-0.077l-0.049,-0.054c-0.068,-0.075 -0.124,-0.16 -0.166,-0.25c-0.035,-0.078 -0.06,-0.16 -0.075,-0.245c-0.014,-0.081 -0.032,-0.328 0.006,-0.461c0.061,-0.215 0.252,-0.369 0.496,-0.375c0.245,0.006 0.436,0.16 0.497,0.375c0.037,0.133 0.02,0.38 0.006,0.461Z" style="fill:#fec25a;fill-rule:nonzero;"/><path d="M3.6,2.467l0,0.413l-2.4,0l0,-0.413c0,-0.096 0.059,-0.182 0.147,-0.216l0.288,-0.113l0.259,-0.102l0.058,-0.023l0.093,-0.037c0.027,0.039 0.059,0.071 0.094,0.097c0.077,0.058 0.169,0.087 0.261,0.087c0.024,0 0.049,-0.002 0.073,-0.006c0.001,-0.001 0.001,-0.001 0.002,-0.001c0.009,-0.001 0.017,-0.003 0.026,-0.005c0.007,-0.002 0.016,-0.004 0.023,-0.006c0.008,-0.003 0.016,-0.005 0.024,-0.008c0.024,-0.009 0.048,-0.02 0.07,-0.032c0.052,-0.03 0.099,-0.072 0.137,-0.126l0.001,0.001l0.092,0.036l0.058,0.023l0.259,0.101l0.288,0.114c0.088,0.035 0.147,0.12 0.147,0.216Z" style="fill:#bccad4;fill-rule:nonzero;"/><path d="M1.964,2.034c0.1,0.141 0.263,0.225 0.436,0.225c0.174,0 0.337,-0.084 0.437,-0.226c0.004,-0.006 0.008,-0.013 0.011,-0.021l-0.093,-0.036c-0.086,0.122 -0.221,0.183 -0.355,0.183c-0.134,0 -0.268,-0.061 -0.355,-0.183l-0.093,0.036c0.003,0.008 0.007,0.015 0.012,0.022Z" style="fill:#9fadb4;fill-rule:nonzero;"/><path d="M3.284,2.88l-1.769,0c0.036,-0.134 0.101,-0.316 0.101,-0.316c0.06,-0.25 0.039,-0.373 0.019,-0.426l0.259,-0.102c0.041,0.217 0.181,0.327 0.276,0.378c0.013,0.007 0.031,0.015 0.051,0.025c0.114,0.052 0.244,0.052 0.358,0c0.02,-0.01 0.038,-0.018 0.051,-0.025c0.095,-0.051 0.235,-0.161 0.276,-0.378l0.259,0.101c-0.02,0.054 -0.042,0.176 0.019,0.427c0,0 0.065,0.182 0.1,0.316Z" style="fill:#39596b;fill-rule:nonzero;"/><path d="M1.888,1.309l0.05,0.05l0,-0.221l-0.056,0c0,0.021 0,0.043 0,0.064c0.001,0.038 0.003,0.075 0.006,0.107Z" style="fill:#39596b;fill-rule:nonzero;"/><path d="M2.913,1.309c0.003,-0.032 0.005,-0.069 0.006,-0.107c0,-0.021 0.001,-0.043 0,-0.064l-0.056,0l0,0.221l0.05,-0.05Z" style="fill:#39596b;fill-rule:nonzero;"/><path d="M2.955,1.044l-1.109,0l0,-0.009c0,-0.307 0.248,-0.555 0.554,-0.555c0.307,0 0.555,0.248 0.555,0.555l0,0.009l0,0Z" style="fill:#00b3a8;fill-rule:nonzero;"/><path d="M1.902,0.975c0.011,-0.002 0.022,-0.005 0.034,-0.008c0.305,-0.074 0.623,-0.074 0.928,0c0.012,0.003 0.024,0.005 0.035,0.008c0.071,0.015 0.072,0.093 0.022,0.163c-0.03,0.042 -0.053,0.071 -0.107,0.045c0,0 -0.212,-0.109 -0.414,-0.109c-0.202,0 -0.413,0.109 -0.413,0.109c-0.054,0.026 -0.077,-0.003 -0.107,-0.045c-0.05,-0.07 -0.049,-0.148 0.022,-0.163Z" style="fill:#00b09d;fill-rule:nonzero;"/><path d="M2.994,2.745l0,0.135l-1.188,0l0,-0.135c0,-0.097 0.079,-0.175 0.176,-0.175l0.836,0c0.097,0 0.176,0.078 0.176,0.175Z" style="fill:#00b3a8;fill-rule:nonzero;"/></g></g></svg>