<?xml version="1.0" encoding="UTF-8" standalone="no"?><!DOCTYPE svg PUBLIC "-//W3C//DTD SVG 1.1//EN" "http://www.w3.org/Graphics/SVG/1.1/DTD/svg11.dtd"><svg width="45px" height="45px" viewBox="0 0 5 5" version="1.1" xmlns="http://www.w3.org/2000/svg" xmlns:xlink="http://www.w3.org/1999/xlink" xml:space="preserve" xmlns:serif="http://www.serif.com/" style="fill-rule:evenodd;clip-rule:evenodd;stroke-linejoin:round;stroke-miterlimit:1.41421;"><path id="Pin-Icon" serif:id="Pin Icon" d="M4,2.283c-0.385,1.293 -1.6,2.517 -1.6,2.517c0,0 -1.211,-1.221 -1.597,-2.511c-0.066,-0.181 -0.103,-0.386 -0.103,-0.59c0,-0.944 0.761,-1.699 1.7,-1.699c0.939,0 1.7,0.755 1.7,1.699c0,0.202 -0.037,0.405 -0.1,0.584Zm-1.6,-1.283c-0.387,0 -0.7,0.313 -0.7,0.7c0,0.387 0.313,0.7 0.7,0.7c0.387,0 0.7,-0.313 0.7,-0.7c0,-0.387 -0.313,-0.7 -0.7,-0.7Z" style="fill:#1976D2;"/><circle cx="2.4" cy="1.68" r="1.2" style="fill:#fff;"/><clipPath id="_clip1"><circle cx="2.4" cy="1.68" r="1.2"/></clipPath><g clip-path="url(#_clip1)"><g><path d="M2.399,2.253l0.001,0l0,0l0,0l0,0l0.001,0l0,0l0,0l0,0l0.268,-0.18l0,0l0,-0.135c-0.02,0.014 -0.039,0.029 -0.058,0.046c-0.118,0.106 -0.233,0.088 -0.233,0.088c-0.071,0.002 -0.171,-0.07 -0.214,-0.104c-0.011,-0.008 -0.022,-0.017 -0.033,-0.024l0,0.129l0,0l0.268,0.18Z" style="fill:#f6c357;fill-rule:nonzero;"/><path d="M2.4,2.253l0,0l0,0l0,0l-0.087,0.119l0.087,-0.119Z" style="fill:#f6c357;fill-rule:nonzero;"/><path d="M2.115,1.084l0.167,0c0.015,0 0.03,-0.002 0.045,-0.007c0.03,-0.01 0.078,-0.028 0.114,-0.041c0.033,-0.013 0.069,-0.013 0.102,-0.002l0.176,0.062c0.118,0.044 0.13,0.155 0.13,0.155l0,0.314c0,0 0.015,-0.105 0.069,-0.191c0.013,-0.021 0.02,-0.045 0.02,-0.07l0,-0.271c0,0 -0.017,-0.133 -0.147,-0.164c0,0 0.053,-0.113 -0.085,-0.14l-0.507,0c-0.185,0 -0.336,0.15 -0.336,0.336l0,0.199c0,0.043 0.015,0.085 0.042,0.119c0.021,0.026 0.043,0.068 0.047,0.128l0,-0.264c0.032,-0.146 0.163,-0.163 0.163,-0.163Z" style="fill:#63798b;fill-rule:nonzero;"/><path d="M2.378,2.072c0,0 0.115,0.018 0.233,-0.088c0.019,-0.017 0.038,-0.032 0.058,-0.046c0.002,-0.001 0.004,-0.003 0.006,-0.004c0.053,-0.035 0.153,-0.132 0.174,-0.369l0,-0.314c0,0 -0.012,-0.111 -0.13,-0.155l-0.176,-0.062c-0.033,-0.011 -0.069,-0.011 -0.102,0.002c-0.036,0.013 -0.084,0.031 -0.114,0.041c-0.015,0.005 -0.03,0.007 -0.045,0.007l-0.167,0c0,0 -0.131,0.017 -0.163,0.163l0,0.325c0,0 0.005,0.257 0.175,0.369c0.001,0.001 0.002,0.002 0.004,0.003c0.011,0.007 0.022,0.016 0.033,0.024c0.043,0.034 0.143,0.106 0.214,0.104Z" style="fill:#fbd462;fill-rule:nonzero;"/><path d="M2.492,2.379l-0.047,0.067l0.043,0.272l0.109,-0.197l-0.105,-0.142Z" style="fill:#d5d6dc;fill-rule:nonzero;"/><path d="M2.312,2.719l0.044,-0.273l-0.048,-0.068l-0.105,0.143l0.109,0.198Z" style="fill:#d5d6dc;fill-rule:nonzero;"/><path d="M2.313,2.372l-0.004,0.005l0.091,-0.123l0,-0.001l0,0l-0.087,0.119Z" style="fill:#d5d6dc;fill-rule:nonzero;"/><path d="M2.488,2.718l-0.043,-0.272l0.047,-0.067l0,0l-0.092,-0.126l0,0.001l-0.091,0.123l-0.001,0.001l0,0l0.048,0.068l-0.044,0.273l0,0l0.088,0.159l0.088,-0.16l0,0Z" style="fill:#e66353;fill-rule:nonzero;"/><path d="M2.401,2.879l0.008,-0.008l-0.009,0.008l0.001,0Z" style="fill:#e66353;fill-rule:nonzero;"/><path d="M2.4,2.879l-0.009,-0.008l0.008,0.008l0.001,0Z" style="fill:#e66353;fill-rule:nonzero;"/><path d="M2.4,2.88l0,0l0,0l0,-0.001l0,0l0,0l0,0.001Z" style="fill:#e66353;fill-rule:nonzero;"/><path d="M2.401,2.253l0,0l0,0l0,0Z" style="fill:#e66353;fill-rule:nonzero;"/><path d="M2.4,2.253l0,0l0,0l0,0Z" style="fill:#e66353;fill-rule:nonzero;"/><path d="M2.401,2.253l0,0l0,0l-0.001,0l0,0l0,0l0,0l0,0l0,0l0.092,0.126l0.105,0.142l0.217,-0.396l-0.145,-0.052l0,0l-0.268,0.18Z" style="fill:#e1e6ea;fill-rule:nonzero;"/><path d="M2.308,2.378l0,0l0.005,-0.006l0.087,-0.119l0,0l0,0l-0.001,0l-0.268,-0.18l0,0l-0.145,0.052l0.217,0.396l0.105,-0.143Z" style="fill:#e1e6ea;fill-rule:nonzero;"/><path d="M3.479,2.763l-0.049,-0.294c-0.013,-0.08 -0.068,-0.146 -0.144,-0.173l-0.472,-0.171l0.126,0.251l-0.157,0.003l0.053,0.101l-0.427,0.391l-0.008,0.008l0,0.001l0.979,0c0.062,0 0.109,-0.056 0.099,-0.117Z" style="fill:#3a566a;fill-rule:nonzero;"/><path d="M2.4,2.88l0,0l0,0l0.001,0l-0.001,0Z" style="fill:#3a566a;fill-rule:nonzero;"/><path d="M2.488,2.718l-0.088,0.16l0,0l0,0.001l0.009,-0.008l0.427,-0.391l-0.053,-0.101l0.157,-0.003l-0.126,-0.251l-0.217,0.396l-0.109,0.197Z" style="fill:#2f4859;fill-rule:nonzero;"/><path d="M2.4,2.88l0,-0.001l0,0l0,0l-0.001,0l0.001,0.001Z" style="fill:#2f4859;fill-rule:nonzero;"/><path d="M2.4,2.88l-0.001,-0.001l-0.008,-0.008l-0.427,-0.391l0.053,-0.101l-0.157,-0.003l0.126,-0.251l-0.472,0.171c-0.076,0.027 -0.131,0.093 -0.144,0.173l-0.049,0.294c-0.01,0.061 0.037,0.117 0.099,0.117l0.98,0l0,0l0,0Z" style="fill:#3a566a;fill-rule:nonzero;"/><path d="M2.401,2.879l-0.001,0l0,-0.001l0,0l-0.088,-0.159l-0.109,-0.198l-0.217,-0.396l-0.126,0.251l0.157,0.003l-0.053,0.101l0.427,0.391l0.009,0.008l0,0l0,0l0,0.001l0.001,0l0,-0.001Z" style="fill:#2f4859;fill-rule:nonzero;"/></g></g></svg>