<?xml version="1.0" encoding="iso-8859-1"?>
<!-- Generator: Adobe Illustrator 19.0.0, SVG Export Plug-In . SVG Version: 6.00 Build 0)  -->
<svg version="1.1" id="Capa_1" xmlns="http://www.w3.org/2000/svg" xmlns:xlink="http://www.w3.org/1999/xlink" x="0px" y="0px"
	 viewBox="0 0 472 472" style="enable-background:new 0 0 472 472;" xml:space="preserve">
<path style="fill:#F7BA61;" d="M459.992,112l-40-72h-376l-32,72H459.992z"/>
<path style="fill:#EBEBEB;" d="M459.992,112v352h-448V112"/>
<path style="fill:#DC4D41;" d="M427.992,464h-112V294.4c0-12.371,10.029-22.4,22.4-22.4h67.2c12.371,0,22.4,10.029,22.4,22.4
	L427.992,464z"/>
<path style="fill:#6CBAE5;" d="M315.992,312h112v152h-112V312z"/>
<g>
	<path style="fill:#4799CF;" d="M315.992,448h112v16h-112V448z"/>
	<path style="fill:#4799CF;" d="M347.992,344h48v88h-48V344z"/>
</g>
<path style="fill:#428DC5;" d="M347.992,416h48v16h-48V416z"/>
<path style="fill:#8ACED8;" d="M275.992,432h-224V288c0-8.837,7.163-16,16-16h192c8.837,0,16,7.163,16,16V432z"/>
<path style="fill:#DBDBDB;" d="M123.992,112h112l0,0v80c0,26.51-21.49,48-48,48h-16c-26.51,0-48-21.49-48-48V112L123.992,112z"/>
<g>
	<path style="fill:#F7BA61;" d="M11.992,112h112l0,0v76.8c0,28.277-22.923,51.2-51.2,51.2h-12.8c-26.51,0-48-21.49-48-48V112
		L11.992,112z"/>
	<path style="fill:#F7BA61;" d="M235.992,112h112l0,0v88c0,22.091-17.909,40-40,40h-32c-22.091,0-40-17.909-40-40V112L235.992,112z"
		/>
</g>
<path style="fill:#DBDBDB;" d="M347.992,112h112l0,0v80c0,26.51-21.49,48-48,48h-16c-26.51,0-48-21.49-48-48V112L347.992,112z"/>
<path style="fill:#F0F0F0;" d="M43.992,8h376v32h-376V8z"/>
<path style="fill:#B9B9B9;" d="M147.992,40l-24,72h112V40H147.992z"/>
<g>
	<path style="fill:#EA9D2D;" d="M43.992,40l-32,72h112l24-72H43.992z"/>
	<path style="fill:#EA9D2D;" d="M323.992,40h-88v72h112L323.992,40z"/>
</g>
<path style="fill:#B9B9B9;" d="M459.992,112l-40-72h-96l24,72H459.992z"/>
<path style="fill:#8ACED8;" d="M51.992,312h224v120h-224V312z"/>
<g>
	<path style="fill:#6FBBC6;" d="M51.992,416h224v16h-224V416z"/>
	<path style="fill:#6FBBC6;" d="M51.992,304h224v24h-224V304z"/>
</g>
<g>
	<path style="fill:#EA9D2D;" d="M275.992,288c0-8.837-7.163-16-16-16h-192c-8.837,0-16,7.163-16,16v24h224V288z"/>
	<path style="fill:#EA9D2D;" d="M427.992,294.4c0-12.371-10.029-22.4-22.4-22.4h-67.2c-12.371,0-22.4,10.029-22.4,22.4V320h112
		L427.992,294.4z"/>
</g>
<path style="fill:#4799CF;" d="M315.992,312h112v16h-112V312z"/>
<path d="M339.992,440h64V336h-64V440z M355.992,352h32v72h-32V352z"/>
<path d="M259.992,264h-192c-13.255,0-24,10.745-24,24v152h240V288C283.992,274.745,273.247,264,259.992,264z M67.992,280h192
	c4.418,0,8,3.582,8,8v16h-208v-16C59.992,283.582,63.574,280,67.992,280z M59.992,424V320h208v104H59.992z"/>
<path d="M467.44,109.272c-0.08-0.224-0.16-0.44-0.256-0.656s-0.112-0.344-0.2-0.496l-38.992-70.192V8c0-4.418-3.582-8-8-8h-376
	c-4.418,0-8,3.582-8,8v30.304L4.68,108.752v0.072c0,0.088-0.048,0.192-0.088,0.28c-0.311,0.816-0.484,1.679-0.512,2.552
	c0,0.12-0.072,0.224-0.072,0.344v360h463.984V112c0-0.048,0-0.096,0-0.144C467.956,110.97,467.769,110.096,467.44,109.272
	L467.44,109.272z M243.992,192v-72h96v80c0,17.673-14.327,32-32,32h-32c-17.673,0-32-14.327-32-32V192z M227.992,192
	c-0.026,22.08-17.92,39.974-40,40h-16c-22.08-0.026-39.974-17.92-40-40v-72h96V192z M115.992,188.8
	c-0.026,23.848-19.352,43.174-43.2,43.2h-12.8c-22.08-0.026-39.974-17.92-40-40v-72h96V188.8z M227.992,48v56h-92.896l18.664-56
	H227.992z M318.224,48l18.664,56h-92.896V48H318.224z M355.992,120h96v72c-0.026,22.08-17.92,39.974-40,40h-16
	c-22.08-0.026-39.974-17.92-40-40V120z M353.76,104l-18.664-56h80.192l31.104,56H353.76z M51.992,16h360v16h-360V16z M49.192,48
	h87.696l-18.664,56h-93.92L49.192,48z M323.992,456V320h96v136H323.992z M419.992,304h-96v-9.6c0-7.953,6.447-14.4,14.4-14.4h67.2
	c7.953,0,14.4,6.447,14.4,14.4L419.992,304z M451.992,456h-16V294.4c0-16.789-13.611-30.4-30.4-30.4h-67.2
	c-16.789,0-30.4,13.611-30.4,30.4V456h-288V231.112c10.506,10.8,24.933,16.892,40,16.888h12.8
	c20.647-0.022,39.787-10.811,50.496-28.464c9.921,17.569,28.527,28.443,48.704,28.464h16c18.5-0.014,35.8-9.164,46.224-24.448
	c8.496,15.088,24.46,24.43,41.776,24.448h32c17.316-0.018,33.28-9.36,41.776-24.448c10.424,15.284,27.724,24.434,46.224,24.448h16
	c15.067,0.004,29.494-6.088,40-16.888L451.992,456z"/>
<g>
</g>
<g>
</g>
<g>
</g>
<g>
</g>
<g>
</g>
<g>
</g>
<g>
</g>
<g>
</g>
<g>
</g>
<g>
</g>
<g>
</g>
<g>
</g>
<g>
</g>
<g>
</g>
<g>
</g>
</svg>
