<?xml version="1.0" standalone="no"?><!-- Generator: Gravit.io --><svg xmlns="http://www.w3.org/2000/svg" xmlns:xlink="http://www.w3.org/1999/xlink" style="isolation:isolate" viewBox="0 0 290 290" width="290" height="290"><defs><clipPath id="_clipPath_M5JQXWxJ6TUH40nEj1caGtdq5nG6Ha95"><rect width="290" height="290"/></clipPath></defs><g clip-path="url(#_clipPath_M5JQXWxJ6TUH40nEj1caGtdq5nG6Ha95)"><g id="Group"><g id="Group"><path d=" M 271.29 116.935 L 290 116.935 L 290 88.87 L 274.943 88.87 L 270.266 70.161 L 19.734 70.161 L 15.058 88.87 L 0 88.87 L 0 116.935 L 18.71 116.935 L 18.71 168.387 L 18.71 191.775 L 18.71 257.259 L 0 257.259 L 0 285.323 L 290 285.323 L 290 257.259 L 271.29 257.259 L 271.29 195.147 L 276.327 196.827 L 290 189.989 L 290 171.569 L 271.024 145.001 L 271.29 145.001 L 271.29 116.935 Z  M 27.04 79.516 L 262.959 79.516 L 265.298 88.87 L 24.702 88.87 L 27.04 79.516 Z  M 9.355 107.58 L 9.355 98.225 L 12.718 98.225 L 277.281 98.225 L 280.644 98.225 L 280.644 107.58 L 271.289 107.58 L 261.935 107.58 L 28.065 107.58 L 18.71 107.58 L 9.355 107.58 Z  M 261.935 116.935 L 261.935 135.645 L 126.29 135.645 L 119.021 135.645 L 28.065 135.645 L 28.065 116.935 L 261.935 116.935 L 261.935 116.935 Z  M 257.258 183.729 L 247.903 186.849 L 238.548 183.729 L 238.548 176.896 L 226.588 145 L 240.335 145 L 257.258 178.847 L 257.258 183.729 Z  M 102.903 257.258 L 102.903 194.664 L 107.221 196.826 L 116.936 193.585 L 116.936 257.259 L 102.903 257.259 L 102.903 257.258 Z  M 102.903 179.084 L 124.204 145 L 126.291 145 L 132.755 145 L 116.936 176.637 L 116.936 183.728 L 107.941 186.727 L 102.904 184.205 L 102.904 182.418 L 102.904 179.084 L 102.903 179.084 Z  M 93.548 182.419 L 42.096 182.419 L 28.065 182.419 L 28.065 177.741 L 93.548 177.741 L 93.548 182.419 Z  M 51.451 191.774 L 93.548 191.774 L 93.548 257.258 L 51.451 257.258 L 51.451 191.774 Z  M 126.29 178.846 L 143.212 145 L 156.96 145 L 145 176.89 L 145 183.723 L 135.645 186.843 L 126.29 183.723 L 126.29 178.846 L 126.29 178.846 Z  M 216.597 145 L 229.193 178.593 L 229.193 183.729 L 219.838 186.849 L 210.483 183.729 L 210.483 177.742 L 206.423 145 L 216.597 145 Z  M 196.998 145 L 201.129 178.036 L 201.129 183.729 L 191.774 186.849 L 182.419 183.729 L 182.419 178.036 L 186.549 145 L 196.998 145 Z  M 173.102 177.162 L 173.079 183.725 L 163.71 186.845 L 154.355 183.725 L 154.355 178.589 L 166.951 145 L 177.12 145 L 173.102 177.162 Z  M 149.677 192.026 L 163.709 196.704 L 177.741 192.026 L 191.773 196.704 L 205.804 192.026 L 219.836 196.704 L 233.868 192.026 L 238.545 193.584 L 238.545 233.87 L 149.677 233.87 L 149.677 192.026 Z  M 28.065 145 L 113.175 145 L 98.558 168.387 L 28.065 168.387 L 28.065 145 Z  M 28.065 191.774 L 42.096 191.774 L 42.096 257.258 L 28.065 257.258 L 28.065 191.774 Z  M 280.645 275.967 L 9.355 275.967 L 9.355 266.612 L 18.71 266.612 L 28.065 266.612 L 42.096 266.612 L 102.902 266.612 L 280.645 266.612 L 280.645 275.967 Z  M 261.935 257.258 L 126.29 257.258 L 126.29 193.584 L 135.645 196.704 L 140.322 195.146 L 140.322 243.226 L 247.902 243.226 L 247.902 196.704 L 261.933 192.026 L 261.933 257.258 L 261.935 257.258 Z  M 280.645 184.206 L 275.608 186.723 L 266.613 183.724 L 266.613 176.633 L 250.794 145 L 259.528 145 L 280.646 174.561 L 280.646 184.206 L 280.645 184.206 Z " fill="rgb(255,255,255)" vector-effect="non-scaling-stroke" stroke-width="0.998" stroke="rgb(255,255,255)" stroke-linejoin="miter" stroke-linecap="butt" stroke-miterlimit="4"/><path d=" M 247.903 79.516 L 42.096 79.516 L 42.096 18.71 C 42.096 10.973 48.392 4.678 56.128 4.678 L 233.87 4.678 C 241.606 4.678 247.902 10.973 247.902 18.71 L 247.902 79.516 L 247.903 79.516 Z " fill="rgb(249,186,72)"/><path d=" M 79.516 56.129 L 74.839 56.129 C 72.261 56.129 70.162 54.029 70.162 51.451 L 60.807 51.451 C 60.807 59.187 67.102 65.483 74.839 65.483 L 79.516 65.483 C 87.252 65.483 93.547 59.187 93.547 51.451 C 93.547 43.715 87.252 37.419 79.516 37.419 L 74.839 37.419 C 72.261 37.419 70.162 35.319 70.162 32.741 C 70.162 30.164 72.262 28.064 74.839 28.064 L 79.516 28.064 C 82.093 28.064 84.193 30.164 84.193 32.741 L 93.547 32.741 C 93.547 25.005 87.252 18.709 79.516 18.709 L 74.839 18.709 C 67.102 18.709 60.807 25.004 60.807 32.741 C 60.807 40.479 67.102 46.774 74.839 46.774 L 79.516 46.774 C 82.093 46.774 84.193 48.875 84.193 51.452 C 84.194 54.029 82.093 56.129 79.516 56.129 Z " fill="rgb(255,255,255)"/><path d=" M 112.258 46.774 L 130.968 46.774 L 130.968 65.484 L 140.323 65.484 L 140.323 18.71 L 130.968 18.71 L 130.968 37.419 L 112.258 37.419 L 112.258 18.71 L 102.903 18.71 L 102.903 65.484 L 112.258 65.484 L 112.258 46.774 Z " fill="rgb(255,255,255)"/><path d=" M 168.387 65.484 C 178.706 65.484 187.097 57.093 187.097 46.774 L 187.097 37.419 C 187.097 27.101 178.706 18.71 168.387 18.71 C 158.068 18.71 149.677 27.101 149.677 37.419 L 149.677 46.774 C 149.677 57.092 158.068 65.484 168.387 65.484 Z  M 159.032 37.419 C 159.032 32.26 163.228 28.065 168.387 28.065 C 173.546 28.065 177.742 32.26 177.742 37.419 L 177.742 46.774 C 177.742 51.933 173.546 56.129 168.387 56.129 C 163.228 56.129 159.032 51.933 159.032 46.774 L 159.032 37.419 Z " fill="rgb(255,255,255)"/><path d=" M 205.806 46.774 L 215.161 46.774 C 222.898 46.774 229.193 40.479 229.193 32.741 C 229.193 25.004 222.898 18.709 215.161 18.709 L 196.452 18.709 L 196.452 65.483 L 205.806 65.483 L 205.806 46.774 Z  M 205.806 28.065 L 215.161 28.065 C 217.739 28.065 219.838 30.165 219.838 32.742 C 219.838 35.32 217.738 37.42 215.161 37.42 L 205.806 37.42 L 205.806 28.065 Z " fill="rgb(255,255,255)"/></g></g></g></svg>